<svg width="3856" height="1736" viewBox="0 0 3856 1736" fill="none" xmlns="http://www.w3.org/2000/svg">
<rect width="3856" height="1736" fill="#FFC718"/>
<path fill-rule="evenodd" clip-rule="evenodd" d="M3595.15 685.298L3590.03 685.595L3589.41 690.798C3588.52 698.156 3588.71 756.639 3589.71 784C3590.17 796.65 3590.37 807.182 3590.17 807.405C3589.76 807.837 3587.77 803.325 3583.3 791.834C3578.47 779.408 3566.87 766.277 3556.76 761.775C3549.03 758.332 3539.03 756.384 3526.26 755.836C3514.69 755.339 3512.03 755.557 3502 757.837C3488.4 760.927 3480.63 764.836 3471.94 772.964C3461.6 782.624 3454.16 795.733 3450.23 811.241C3445.9 828.322 3445.27 835.957 3445.34 871C3445.39 902.656 3445.5 904.489 3447.99 916C3452.82 938.34 3460.07 953.023 3471.38 963.385C3482.76 973.814 3494.42 978.685 3512.38 980.512C3531.84 982.491 3548.85 979.086 3564.06 970.171C3573.12 964.864 3583.57 949.378 3587.4 935.574C3588.33 932.233 3589.51 929.5 3590.02 929.5C3590.77 929.5 3590.48 949.34 3589.38 973.5L3589.26 976H3622.76H3656.26V830.5V685H3628.26C3612.86 685 3597.96 685.134 3595.15 685.298ZM1730.26 689.168C1694.93 692.098 1673.73 698.807 1656.75 712.437C1638.33 727.213 1625.69 750.539 1620.84 778.665C1617.59 797.529 1616.98 858.537 1619.8 883C1626.62 942.229 1660.01 975.139 1719.26 981.045C1752.71 984.378 1775.61 981.349 1799.26 970.464C1810.57 965.259 1812.76 963.306 1812.76 958.424C1812.76 956.373 1813.89 943.538 1815.26 929.901C1816.64 916.263 1817.76 904.969 1817.76 904.803C1817.76 903.826 1814.06 904.823 1809.95 906.906C1801.34 911.27 1786.49 916.646 1777.31 918.73C1766.31 921.223 1743.79 921.675 1733.76 919.603C1717.36 916.213 1703.41 905.842 1696.75 892.082C1690.04 878.235 1689.54 873.708 1689.99 831.2C1690.37 794.08 1690.38 793.983 1693.03 786C1696.33 776.102 1699.92 770.335 1706.47 764.451C1713.48 758.154 1721.92 753.904 1732.38 751.401C1744.67 748.46 1765.88 749.115 1779.26 752.847C1787.29 755.085 1803.23 761.196 1811.17 765.08C1814.36 766.64 1816.14 766.918 1815.41 765.743C1815.16 765.327 1814.23 755.539 1813.36 743.993C1812.48 732.447 1811.49 719.491 1811.16 715.202C1810.64 708.57 1810.21 707.182 1808.28 705.917C1804.19 703.24 1786.46 696.393 1777.26 693.943C1768.94 691.725 1742.53 688.287 1736.76 688.67C1735.39 688.761 1732.46 688.985 1730.26 689.168ZM2733.61 695.165L2722.95 695.566L2722.43 704.783C2722.14 709.852 2721.99 772.95 2722.08 845L2722.26 976L2755.54 976.264C2781.63 976.47 2788.92 976.254 2789.28 975.264C2789.54 974.569 2789.86 953.75 2790 929L2790.26 884L2818.76 884.065L2847.26 884.131L2854 886.915C2863.6 890.887 2868.63 897.155 2872.13 909.53C2872.98 912.539 2875.07 928.492 2876.79 944.983C2878.5 961.474 2880.13 975.199 2880.41 975.483C2881.3 976.376 2949.94 976.724 2950.78 975.84C2951.23 975.378 2951.18 972.525 2950.69 969.5C2950.19 966.475 2948.66 955.225 2947.27 944.5C2942.02 903.868 2937.91 886.053 2930.7 872.659C2921.79 856.102 2913.26 849.797 2892.98 844.757C2889.53 843.899 2886.86 842.727 2887.05 842.154C2887.24 841.581 2890.51 840.559 2894.33 839.884C2915.5 836.134 2931.21 825.984 2938.58 811.295C2944.21 800.082 2945.27 794.096 2945.21 774C2945.15 756.495 2945.07 755.739 2941.97 746.5C2938.25 735.397 2935.08 729.663 2928.45 722.032C2917.4 709.303 2901.48 701.763 2876.44 697.402C2866.83 695.728 2858.8 695.474 2804.94 695.14C2771.57 694.933 2739.47 694.944 2733.61 695.165ZM2612.26 703.24C2610.06 703.383 2603.31 704.155 2597.26 704.958C2591.21 705.76 2581.76 706.892 2576.26 707.473C2570.76 708.054 2562.55 709.019 2558.01 709.618L2549.76 710.707V735.496C2549.76 754.471 2549.47 760.37 2548.51 760.643C2547.83 760.839 2541.33 761 2534.07 761H2520.87L2520.57 764.5C2520.4 766.425 2520.39 778.225 2520.55 790.723L2520.84 813.446L2534.86 813.723L2548.89 814L2548.8 856.065C2548.75 879.201 2549.2 904.626 2549.8 912.565C2551.32 932.699 2555.43 945.934 2563.65 957.208C2567.25 962.142 2579.43 971.585 2585.81 974.385C2597.17 979.372 2622.42 982.091 2642.18 980.453C2655.89 979.318 2660.48 978.373 2675.26 973.645L2684.26 970.766L2685.43 964.983C2686.07 961.803 2687.33 951.955 2688.22 943.1C2689.12 934.245 2690.27 924.346 2690.77 921.103C2691.28 917.86 2691.47 914.832 2691.19 914.374C2690.9 913.917 2688.33 914.466 2685.47 915.594C2669.1 922.046 2666.45 922.688 2653.95 923.236C2638.24 923.924 2631.41 922.178 2625.08 915.862C2617.56 908.353 2617.4 907.194 2617 857.264L2616.65 813.527L2649.94 813.264L2683.22 813L2684.95 798C2685.91 789.75 2687.41 778.347 2688.3 772.659C2689.19 766.972 2689.66 762.059 2689.34 761.741C2689.02 761.423 2672.06 761.271 2651.64 761.402L2614.52 761.641L2615.19 744.82C2615.56 735.569 2616.3 722.63 2616.83 716.067C2617.36 709.503 2617.45 703.874 2617.03 703.558C2616.61 703.241 2614.46 703.098 2612.26 703.24ZM2845.49 751.575C2851.97 752.298 2856.67 753.434 2859.84 755.041C2872.3 761.354 2878.54 777.65 2876.05 797.392C2874.79 807.362 2872.5 812.665 2866.76 818.889C2858.36 827.999 2851.27 829.452 2815.01 829.48L2789.76 829.5V790V750.5H2812.8C2825.48 750.5 2840.18 750.984 2845.49 751.575ZM1932.26 754.005C1907.4 756.815 1888.2 763.318 1875.62 773.188C1866.38 780.443 1856.31 792.7 1851.7 802.323C1842.49 821.541 1840.26 837.157 1841.03 877C1841.59 906.022 1843.23 915.845 1850.03 930.981C1857 946.509 1861.31 952.018 1874.07 961.735C1889.22 973.264 1903.78 978.271 1930.26 981.053C1942.59 982.348 1947.49 982.43 1957.76 981.513C1970.89 980.34 1984.86 978.15 1990.76 976.339C2004.54 972.112 2019.62 962.808 2029.8 952.254C2036.56 945.247 2044.81 928.483 2048.23 914.773C2052.13 899.168 2053.39 878.19 2051.97 852.199C2050.4 823.266 2046.54 809.299 2035.59 792.936C2030.03 784.613 2017.71 772.666 2010.31 768.401C1998.55 761.629 1976.66 755.35 1960.26 754.049C1955.86 753.7 1950.46 753.242 1948.26 753.032C1946.06 752.822 1938.86 753.26 1932.26 754.005ZM3064.72 754.034C3029.35 757.829 3009.75 766.82 2993.48 786.709C2983.53 798.88 2976.9 813.879 2973.62 831.65C2971.47 843.355 2971.74 896.557 2974.01 907.061C2977.73 924.272 2985.43 941.873 2993.07 950.596C3005.05 964.283 3025.2 975.285 3044.76 978.829C3062.82 982.099 3077.06 982.747 3093.76 981.06C3102.29 980.199 3112.86 978.628 3117.26 977.57C3134.15 973.507 3153.01 962.135 3163.18 949.891C3169.57 942.197 3176.15 928.058 3180.06 913.6L3183.2 902L3183.22 869.5C3183.25 839.969 3183.06 836.132 3181.13 827.5C3176 804.548 3166.17 787.522 3150.93 775.2C3134.56 761.963 3114.54 755.596 3081.76 753.198C3078.74 752.977 3071.07 753.353 3064.72 754.034ZM2404.06 754.599C2379.62 756.102 2358.98 762.472 2346.96 772.227C2337.56 779.855 2334.32 784.607 2329.72 797.5C2326.87 805.5 2325.81 825.652 2327.78 834.474C2330.67 847.426 2337.25 857.686 2348.29 866.455C2358.39 874.479 2370.21 879.309 2395.76 885.845C2426.79 893.783 2437.31 897.793 2442.14 903.533C2444.95 906.871 2445.44 910.573 2443.7 915.185C2439.72 925.718 2425.37 929.461 2396.43 927.511C2376.05 926.138 2351.9 920.401 2334.96 912.907C2331.96 911.583 2329.06 910.5 2328.51 910.5C2327.45 910.5 2327.71 914.704 2330.27 939C2332.81 963.161 2332.99 964.432 2334.14 965.904C2336.85 969.373 2364.96 977.258 2382.76 979.544C2396.04 981.248 2433.71 981.055 2446.76 979.217C2464.75 976.685 2485.99 967.425 2494.91 958.227C2499.73 953.266 2505.42 943.294 2507.78 935.674C2514.55 913.85 2510.93 888.176 2499.05 873.672C2489.72 862.287 2468.12 852.682 2435.76 845.528C2418.42 841.693 2404.08 837.186 2399.59 834.161C2395.25 831.237 2391.76 825.917 2391.76 822.22C2391.76 818.685 2394.86 813.323 2398.14 811.173C2405.14 806.586 2437.41 805.589 2455.76 809.395C2468.68 812.072 2481.6 815.637 2492.65 819.574C2497.26 821.217 2501.16 822.435 2501.3 822.28C2501.45 822.126 2500.95 816.375 2500.18 809.5C2499.42 802.625 2498.33 792.275 2497.75 786.5C2495.88 767.739 2497.91 770.24 2479.9 764.506C2461.51 758.648 2447.59 755.759 2434.06 754.991C2428.67 754.685 2422.46 754.303 2420.26 754.142C2418.06 753.981 2410.77 754.187 2404.06 754.599ZM2215.64 755.507C2210.62 755.978 2203.41 757.558 2198.38 759.292C2176.3 766.904 2164.93 778.807 2158.29 801.25C2155.01 812.36 2154.41 809.046 2155.15 784C2155.53 771.075 2155.49 760.446 2155.05 760.381C2153.78 760.19 2151.81 760.188 2119.51 760.348L2088.76 760.5L2089.01 868.25L2089.26 976H2122.76H2156.26L2156.76 905L2157.26 834L2159.91 829.934C2166.71 819.483 2175.62 813.455 2187.25 811.43C2203.15 808.659 2216.96 814.277 2222.99 825.972C2227.18 834.118 2227.18 834.14 2227.73 906L2228.26 976L2259.76 976.28C2277.09 976.433 2292.28 976.312 2293.51 976.011L2295.76 975.462L2295.76 906.231C2295.76 840.45 2295.18 822.359 2292.66 809.5C2290.79 799.968 2286.95 789.429 2282.81 782.458C2271.07 762.693 2246.05 752.656 2215.64 755.507ZM3290.26 755.203C3268.11 757.237 3230.68 768.006 3226.05 773.677C3225.46 774.405 3223.98 784 3222.77 795C3219.26 826.85 3219.34 825.59 3220.89 825.096C3221.65 824.855 3230.59 821.936 3240.76 818.609C3269.57 809.19 3274.96 808.185 3296.76 808.16C3313.28 808.14 3315.9 808.37 3321.19 810.305C3332.67 814.504 3338.71 820.4 3342.28 830.912C3344.62 837.793 3344.43 837.987 3334.4 838.949C3300.9 842.163 3269.59 847.257 3256.58 851.61C3228.26 861.086 3214.26 875.518 3210.62 898.989C3209.1 908.814 3210.06 933.506 3212.25 940.5C3218.38 960.113 3230.65 972.683 3248.77 977.912C3264.64 982.489 3291.9 981.786 3305.76 976.441C3325.08 968.992 3331.42 961.984 3343.16 935.126C3344.09 932.996 3345.03 931.434 3345.25 931.656C3345.48 931.879 3345.24 941.703 3344.72 953.487C3344.2 965.272 3344.14 975.278 3344.59 975.721C3345.03 976.165 3359.99 976.409 3377.83 976.264L3410.26 976V903C3410.26 836.052 3410.11 829.297 3408.44 821.516C3404.57 803.574 3397.14 788.878 3386.61 778.337C3374.69 766.399 3353.73 758.007 3329.69 755.54C3320.17 754.563 3299.19 754.384 3290.26 755.203ZM1962.58 810.704C1970.32 813.598 1977.63 821.038 1980.57 829C1983.66 837.376 1984.7 847.129 1984.72 868C1984.73 892.966 1983.17 902.532 1977.47 912.394C1973.89 918.602 1972.08 920.604 1967.67 923.287C1959.65 928.165 1952.93 929.818 1943.36 929.275C1933.28 928.704 1923.41 924.418 1919 918.698C1915.14 913.694 1911.15 904.269 1909.84 897.066C1908.13 887.638 1908.48 843.353 1910.32 835.514C1913.75 820.976 1923.83 810.943 1937.5 808.48C1944.39 807.237 1956.09 808.274 1962.58 810.704ZM3092.21 810.157C3103.36 814.09 3110.08 821.349 3113.38 833C3115.58 840.783 3116.52 882.182 3114.79 895.262C3113.66 903.815 3109.7 913.246 3104.87 918.88C3102.38 921.795 3096.86 924.994 3090.03 927.482C3078.13 931.824 3060.96 928.729 3052.39 920.693C3050.81 919.212 3047.83 914.534 3045.76 910.298C3042.74 904.117 3041.75 900.572 3040.75 892.357C3039.06 878.585 3039.96 842.344 3042.19 834.16C3046.13 819.718 3055.46 810.991 3069.64 808.48C3075.45 807.45 3086.96 808.306 3092.21 810.157ZM3568.23 812.407C3577.33 816.889 3582.76 823.275 3586.79 834.255L3590.01 843L3590.07 872C3590.15 904.585 3590.46 902.969 3582.28 912.221C3567.47 928.959 3536.99 930.558 3523.29 915.316C3517.94 909.367 3514.94 901.757 3513.7 891.028C3512.51 880.621 3512.56 851.087 3513.79 841.612C3515.53 828.209 3521.99 818.027 3532.01 812.899C3538.96 809.345 3543.23 808.535 3553.04 808.913C3560.46 809.2 3562.81 809.74 3568.23 812.407ZM3344.12 893.5C3344.26 906.905 3344.24 907.028 3341.37 911C3334.61 920.34 3322.38 927.753 3309.56 930.279C3300.38 932.088 3292.77 931.137 3284.76 927.182C3271.58 920.665 3271.48 897.277 3284.61 890.577C3286.73 889.497 3291.57 887.88 3295.36 886.982C3303.43 885.076 3339.41 879.567 3342.12 879.824C3343.81 879.985 3343.98 881.149 3344.12 893.5Z" fill="#010101"/>
<rect x="330" y="185" width="1170" height="1171" rx="206" fill="#1D1E23"/>
<path d="M950 765L1316 600.5V847L948 1009L950 765Z" fill="#606060"/>
<path d="M950 765L591 601V847L948 1009L950 765Z" fill="#C1C1C1"/>
<path d="M1316 600L955.5 430L955 523L1220 643.5L1316 600Z" fill="#C0C0C0"/>
<path d="M591 600.436L955.5 430L955 522.538L685 643.538L591 600.436Z" fill="#5B5B5B"/>
<path d="M684 643.041L955 522.541L1220 643.541L950 765.041L684 643.041Z" fill="#16191E"/>
<path d="M815 644L952.5 578L1092 644L953 709L815 644Z" fill="#5A5A5A"/>
<path d="M952.5 578L1092 644L953 709L952.5 578Z" fill="#BFBFBF"/>
<path d="M591 847L948 1009V1072L591 908.5V847Z" fill="#1B1C21"/>
<path d="M1316 847L948 1009V1072L1316 908.5V847Z" fill="#1B1C21"/>
<path d="M591 908.5L948 1072L948.5 1165L591 998.5V908.5Z" fill="#C0C0C0"/>
<path d="M1316 908.5L948 1072L948.5 1165L1316 998.825V908.5Z" fill="#C0C0C0"/>
<path d="M948 1072L1316 908.5L1316 998.828L948.5 1165L948 1072Z" fill="#606060"/>
</svg>
